HIERARCHY
ROOT Hips
{
 OFFSET 0.000000 0.000000 0.000000
 CHANNELS 6 Xposition Yposition Zposition Yrotation Xrotation Zrotation
 JOINT Chest
 {
  OFFSET 0.000000 9.585900 0.002600
  CHANNELS 3 Yrotation Xrotation Zrotation
  JOINT Chest2
  {
   OFFSET 0.000000 9.601200 -0.005300
   CHANNELS 3 Yrotation Xrotation Zrotation
   JOINT Chest3
   {
    OFFSET 0.000000 9.561800 0.000000
    CHANNELS 3 Yrotation Xrotation Zrotation
    JOINT Chest4
    {
     OFFSET 0.000000 9.552100 0.000000
     CHANNELS 3 Yrotation Xrotation Zrotation
     JOINT Neck
     {
      OFFSET 0.000000 14.453000 0.000000
      CHANNELS 3 Yrotation Xrotation Zrotation
      JOINT Head
      {
       OFFSET 0.000000 8.936500 -0.011300
       CHANNELS 3 Yrotation Xrotation Zrotation
       End Site
       {
        OFFSET 0.000000 17.073600 -0.006000
       }
      }
     }
     JOINT RightCollar
     {
      OFFSET -2.921100 9.558500 0.000000
      CHANNELS 3 Yrotation Xrotation Zrotation
      JOINT RightShoulder
      {
       OFFSET -13.519700 0.000000 0.000000
       CHANNELS 3 Yrotation Xrotation Zrotation
       JOINT RightElbow
       {
        OFFSET 0.000000 -29.696600 0.000000
        CHANNELS 3 Yrotation Xrotation Zrotation
        JOINT RightWrist
        {
         OFFSET 0.000000 -24.004700 0.000000
         CHANNELS 3 Yrotation Xrotation Zrotation
         End Site
         {
          OFFSET 0.000000 -17.728500 0.000000
         }
        }
       }
      }
     }
     JOINT LeftCollar
     {
      OFFSET 2.921100 9.558500 0.000000
      CHANNELS 3 Yrotation Xrotation Zrotation
      JOINT LeftShoulder
      {
       OFFSET 13.519700 0.000000 0.000000
       CHANNELS 3 Yrotation Xrotation Zrotation
       JOINT LeftElbow
       {
        OFFSET 0.000000 -29.696600 0.000000
        CHANNELS 3 Yrotation Xrotation Zrotation
        JOINT LeftWrist
        {
         OFFSET 0.000000 -24.004700 0.000000
         CHANNELS 3 Yrotation Xrotation Zrotation
         End Site
         {
          OFFSET 0.000000 -17.728500 0.000000
         }
        }
       }
      }
     }
    }
   }
  }
 }
 JOINT RightHip
 {
  OFFSET -7.771700 -0.012900 -0.001300
  CHANNELS 3 Yrotation Xrotation Zrotation
  JOINT RightKnee
  {
   OFFSET 0.000000 -40.869800 0.001200
   CHANNELS 3 Yrotation Xrotation Zrotation
   JOINT RightAnkle
   {
    OFFSET 0.000000 -39.717900 0.002100
    CHANNELS 3 Yrotation Xrotation Zrotation
    JOINT RightToe
    {
     OFFSET 0.000000 -4.965400 11.033500
     CHANNELS 3 Yrotation Xrotation Zrotation
     End Site
     {
      OFFSET 0.000000 -1.423100 5.872300
     }
    }
   }
  }
 }
 JOINT LeftHip
 {
  OFFSET 7.771700 -0.012900 -0.001300
  CHANNELS 3 Yrotation Xrotation Zrotation
  JOINT LeftKnee
  {
   OFFSET 0.000000 -40.869800 0.001200
   CHANNELS 3 Yrotation Xrotation Zrotation
   JOINT LeftAnkle
   {
    OFFSET 0.000000 -39.717900 0.002100
    CHANNELS 3 Yrotation Xrotation Zrotation
    JOINT LeftToe
    {
     OFFSET 0.000000 -4.965400 11.033500
     CHANNELS 3 Yrotation Xrotation Zrotation
     End Site
     {
      OFFSET 0.000000 -1.423100 5.872300
     }
    }
   }
  }
 }
}
MOTION
Frames: 8
Frame Time: 0.008333
-229.910354 57.729577 -78.395323 161.268209 -6.367588 0.603450 2.174702 6.141865 2.125339 0.074732 0.227575 0.068913 0.117011 0.445659 0.066442 1.775913 5.874531 1.340058 1.884370 17.121625 -0.675980 3.694916 -3.918994 -1.939783 2.782105 7.451905 1.588734 -3.805250 -7.567988 -10.703237 -117.861642 -85.030653 143.592096 -0.399628 4.787652 -21.794780 -4.746689 6.900182 -2.365911 15.955115 -2.938408 1.529310 137.358717 -81.413234 -167.017108 -4.113279 8.958842 10.976555 -16.709622 -65.398972 7.783534 -37.556972 71.834193 -38.846781 -4.481868 -7.952710 -0.817256 -0.132681 0.839212 -0.075118 -1.311555 -67.842226 15.756685 43.081913 65.242047 36.236203 -17.796328 -9.233266 3.377233 -0.316531 -0.993347 -0.108352
-229.913095 57.729776 -78.389215 161.273028 -6.346515 0.597999 2.163567 6.143676 2.099435 0.070139 0.242454 0.050373 0.123573 0.426767 0.088841 1.774916 5.885878 1.315454 1.902062 17.090719 -0.674711 3.737834 -3.996418 -2.013932 2.778366 7.428761 1.591208 -3.810760 -7.570734 -10.703866 -117.743507 -85.005418 143.483214 -0.393428 4.787962 -21.810120 -4.767641 6.897595 -2.395151 15.980606 -2.980179 1.580374 137.239862 -81.409061 -166.889352 -4.129715 8.954763 10.979313 -16.796237 -65.412559 7.854454 -37.503961 71.833018 -38.809159 -4.472433 -7.957285 -0.815302 -0.136543 0.846676 -0.083697 -1.310438 -67.864614 15.758635 43.074390 65.232094 36.224376 -17.809327 -9.217521 3.374304 -0.327804 -0.990372 -0.107237
-229.915185 57.730434 -78.386102 161.270455 -6.343597 0.595711 2.162224 6.153498 2.083535 0.068262 0.246455 0.043712 0.127147 0.419179 0.100557 1.770112 5.900074 1.288239 1.908346 17.063991 -0.720420 3.770987 -4.059984 -2.015934 2.776430 7.412229 1.590415 -3.817716 -7.569595 -10.709923 -117.650343 -84.979995 143.400309 -0.380664 4.798491 -21.823577 -4.772364 6.888640 -2.390951 15.990484 -2.996965 1.596389 137.223397 -81.411001 -166.865473 -4.128899 8.952020 10.986370 -16.814917 -65.412902 7.873112 -37.489449 71.828938 -38.794655 -4.471354 -7.957375 -0.816009 -0.158028 0.848484 -0.086642 -1.296453 -67.869302 15.753379 43.091970 65.227621 36.231083 -17.806743 -9.213094 3.387956 -0.346725 -0.986539 -0.117564
-229.914467 57.731069 -78.381160 161.253320 -6.334984 0.575738 2.180329 6.148349 2.099122 0.062528 0.257826 0.024652 0.131433 0.412299 0.112869 1.766222 5.913207 1.260345 1.916944 17.035455 -0.739911 3.787561 -4.083776 -1.991248 2.754057 7.402049 1.545040 -3.819402 -7.556001 -10.701559 -117.556148 -84.943336 143.312053 -0.360155 4.828055 -21.836270 -4.780311 6.881006 -2.381770 15.973473 -2.996203 1.568355 137.380676 -81.423919 -166.985475 -4.137410 8.946819 10.981467 -16.862339 -65.412212 7.938803 -37.488548 71.813944 -38.786366 -4.458005 -7.945373 -0.823742 -0.157036 0.842350 -0.088587 -1.278959 -67.889020 15.773260 43.063947 65.242012 36.215861 -17.807841 -9.205903 3.395102 -0.327151 -0.988479 -0.119532
-229.915374 57.731879 -78.377501 161.236308 -6.329682 0.567571 2.191256 6.157841 2.083959 0.064453 0.254454 0.029760 0.122924 0.431814 0.078634 1.781756 5.902829 1.270879 1.927716 17.005707 -0.746440 3.799460 -4.107133 -1.974634 2.745149 7.387612 1.540937 -3.828439 -7.548576 -10.712195 -117.514111 -84.963672 143.270675 -0.373075 4.818341 -21.832980 -4.794783 6.871369 -2.367603 15.985474 -3.007960 1.577999 137.292171 -81.422347 -166.887355 -4.144755 8.950666 10.984685 -16.940645 -65.408570 8.016027 -37.424932 71.812663 -38.734516 -4.439159 -7.940509 -0.834763 -0.172610 0.840823 -0.092668 -1.269675 -67.898842 15.789344 43.053387 65.250900 36.206503 -17.804943 -9.202768 3.403245 -0.323800 -0.991379 -0.125730
-229.913817 57.732632 -78.372260 161.211844 -6.318974 0.543598 2.211056 6.161432 2.084210 0.070568 0.243454 0.048619 0.118624 0.442158 0.056935 1.788036 5.908847 1.255604 1.941321 16.979929 -0.727501 3.837708 -4.209628 -2.064561 2.731095 7.375306 1.538623 -3.830694 -7.542998 -10.714342 -117.477381 -84.979123 143.236031 -0.382015 4.814229 -21.826292 -4.811314 6.859512 -2.353396 15.998072 -3.017076 1.589039 137.328848 -81.427339 -166.916621 -4.122546 8.950519 10.992813 -16.994772 -65.408096 8.093224 -37.419918 71.798551 -38.706855 -4.441231 -7.928001 -0.868358 -0.139107 0.832766 -0.076372 -1.304555 -67.910602 15.856619 43.048203 65.254415 36.202153 -17.796103 -9.207996 3.408328 -0.336771 -0.988796 -0.134063
-229.913954 57.733658 -78.369877 161.200768 -6.320260 0.533848 2.213988 6.181158 2.053877 0.074767 0.237555 0.060636 0.117681 0.442047 0.058268 1.793223 5.914020 1.240371 1.951872 16.948701 -0.746009 3.867412 -4.277167 -2.084397 2.714121 7.365396 1.533729 -3.824519 -7.537965 -10.704710 -117.460643 -84.982218 143.221810 -0.372559 4.831607 -21.822173 -4.826047 6.847577 -2.341092 15.997519 -3.020310 1.593227 137.436318 -81.436693 -167.006724 -4.126840 8.949425 10.996699 -17.021494 -65.401393 8.126666 -37.409165 71.794673 -38.685047 -4.443978 -7.925840 -0.881780 -0.130942 0.830580 -0.071869 -1.314486 -67.910348 15.882394 43.041548 65.260499 36.188154 -17.774228 -9.202027 3.422270 -0.334838 -0.999395 -0.143071
-229.913990 57.734579 -78.366886 161.192871 -6.317246 0.522775 2.219644 6.184250 2.052692 0.066800 0.248642 0.035519 0.121776 0.435885 0.070630 1.798469 5.919501 1.225914 1.961009 16.917956 -0.764702 3.890915 -4.327318 -2.088345 2.710378 7.351081 1.548444 -3.818472 -7.536739 -10.693495 -117.460279 -84.983138 143.221846 -0.362650 4.846586 -21.821309 -4.839111 6.835019 -2.329131 15.994326 -3.016228 1.596704 137.431357 -81.434872 -166.990184 -4.141338 8.951300 11.004686 -17.077979 -65.396504 8.179974 -37.383788 71.790248 -38.650994 -4.448456 -7.923420 -0.892305 -0.117422 0.829169 -0.078993 -1.324015 -67.914378 15.908322 43.049554 65.256849 36.189368 -17.779399 -9.188822 3.431447 -0.322075 -1.007792 -0.144362
